<svg width="22" height="15" viewBox="0 0 22 15" fill="none" xmlns="http://www.w3.org/2000/svg">
<path d="M14.4379 13.1954C14.5174 13.3034 14.5648 13.4317 14.5745 13.5655C14.5841 13.6992 14.5557 13.833 14.4925 13.9513C14.4301 14.0689 14.337 14.1673 14.2232 14.2363C14.1093 14.3052 13.979 14.3421 13.8459 14.343H0.730425C0.597333 14.3421 0.466957 14.3052 0.353113 14.2363C0.239269 14.1673 0.146197 14.0689 0.0837601 13.9513C0.020577 13.833 -0.00782147 13.6992 0.00184929 13.5655C0.0115201 13.4317 0.058865 13.3034 0.138408 13.1954C1.15675 11.7393 2.59662 10.63 4.26431 10.0167C3.28671 9.36729 2.54416 8.4204 2.14655 7.31616C1.74893 6.21193 1.71738 5.00902 2.05656 3.88546C2.39574 2.7619 3.08763 1.77738 4.02984 1.07761C4.97205 0.377844 6.11451 0 7.28815 0C8.46179 0 9.60425 0.377844 10.5465 1.07761C11.4887 1.77738 12.1806 2.7619 12.5197 3.88546C12.8589 5.00902 12.8274 6.21193 12.4298 7.31616C12.0321 8.4204 11.2896 9.36729 10.312 10.0167C11.9797 10.63 13.4196 11.7393 14.4379 13.1954ZM21.87 13.1954C20.8458 11.741 19.4037 10.6325 17.735 10.0167C18.7157 9.36976 19.4613 8.42352 19.861 7.31873C20.2607 6.21395 20.2931 5.00966 19.9533 3.885C19.6136 2.76033 18.9198 1.77539 17.9753 1.07669C17.0308 0.37798 15.886 0.00283874 14.7111 0.00706729C14.2097 0.00972683 13.7107 0.0770746 13.2265 0.207442C13.1128 0.241601 13.0089 0.302386 12.9233 0.384753C12.8378 0.467121 12.7731 0.568698 12.7347 0.681056C12.6981 0.792493 12.6889 0.911132 12.7079 1.02689C12.7269 1.14264 12.7736 1.2521 12.844 1.34594C13.6677 2.45271 14.141 3.7809 14.2027 5.15919C14.2644 6.53749 13.9117 7.90265 13.1901 9.07859C13.0976 9.23484 13.0659 9.41973 13.1012 9.59786C13.1365 9.776 13.2363 9.93486 13.3814 10.044C13.6546 10.2565 13.9187 10.4751 14.1738 10.6998L14.2193 10.7453C15.1915 11.645 15.9802 12.7244 16.5418 13.924C16.5995 14.0494 16.6919 14.1555 16.8082 14.2298C16.9245 14.3041 17.0596 14.3434 17.1976 14.343H21.2689C21.4019 14.3421 21.5323 14.3052 21.6462 14.2363C21.76 14.1673 21.8531 14.0689 21.9155 13.9513C21.9779 13.8333 22.0067 13.7003 21.9987 13.567C21.9907 13.4337 21.9461 13.3051 21.87 13.1954Z" fill="white"/>
</svg>
